<?xml version="1.0" encoding="UTF-8" standalone="no"?>
<svg width="1517px" height="539px" viewBox="0 0 1517 539" version="1.1" xmlns="http://www.w3.org/2000/svg" xmlns:xlink="http://www.w3.org/1999/xlink" xmlns:sketch="http://www.bohemiancoding.com/sketch/ns">
    <!-- Generator: Sketch 3.3.1 (12005) - http://www.bohemiancoding.com/sketch -->
    <title>AppStore</title>
    <desc>Created with Sketch.</desc>
    <defs>
        <linearGradient x1="58.9170878%" y1="9.59026547%" x2="90.8103723%" y2="60.8514694%" id="linearGradient-1">
            <stop stop-color="#FF177B" offset="0%"></stop>
            <stop stop-color="#FFEC73" offset="100%"></stop>
        </linearGradient>
        <linearGradient x1="37.1029741%" y1="-44.0352456%" x2="0%" y2="101.060094%" id="linearGradient-2">
            <stop stop-color="#064AA2" offset="0%"></stop>
            <stop stop-color="#63FFD4" offset="100%"></stop>
        </linearGradient>
        <path id="path-3" d="M139.489627,127 L5.48962656,0 C2.3634091,0.726186853 0.489626556,3.06462999 0.489626556,7 L0.489626556,127 L0.489626556,250 C0.489626556,253.338867 1.83559813,255.325411 3.48962656,256 L139.489627,127 Z"></path>
        <path id="path-5" d="M6.02399711,128.785198 L83.4760746,86.238085 C102.548848,75.6695888 117.685477,67.282093 117.685477,67.282093 L174.009825,36.9446714 L136.511656,0.507964851 L0.513243109,129.524017 C2.02907104,130.011528 4.7007626,129.745054 6.78510906,128.716318"></path>
        <linearGradient x1="78.6453125%" y1="50%" x2="2.49516972%" y2="100%" id="linearGradient-7">
            <stop stop-color="#FF4521" offset="0%"></stop>
            <stop stop-color="#8A33DB" offset="100%"></stop>
        </linearGradient>
        <linearGradient x1="0%" y1="-24.1863374%" x2="64.2244373%" y2="100%" id="linearGradient-8">
            <stop stop-color="#00A3B5" offset="0%"></stop>
            <stop stop-color="#D6FFA1" offset="100%"></stop>
        </linearGradient>
        <path id="path-9" d="M7.61865039,2.14687426 C5.0390372,0.765297171 2.4759932,0.370077565 0.402661466,0.92865807 L134.513913,128.113403 L171.616598,93.0020155 L115.689627,62.0225581 C115.689627,62.0225581 62.9766433,32.817123 31.1482343,15.1823037 L7.61865039,2.14687426 Z"></path>
    </defs>
    <g id="Page-1" stroke="none" stroke-width="1" fill="none" fill-rule="evenodd" sketch:type="MSPage">
        <g id="AppStore" sketch:type="MSArtboardGroup">
            <g id="Play-Store" sketch:type="MSLayerGroup" transform="translate(19.000000, 15.000000)">
                <rect id="background" fill="#000000" sketch:type="MSShapeGroup" x="0" y="0" width="1477" height="500" rx="60"></rect>
                <g id="icon" transform="translate(60.000000, 178.000000)">
                    <path d="M120.66888,62.0225581 C120.66888,62.0225581 18.7634855,5.56224806 12.7784232,2.24515504 C6.78340249,-1.07193798 0.818257261,0.940232558 0.818257261,7.87325581 L0.818257261,128.404264 L0.818257261,251.385736 C0.818257261,256.575543 5.08049793,258.826783 10.2887967,255.947984 C15.4871369,253.069186 120.66888,194.785969 120.66888,194.785969 C120.66888,194.785969 134.957636,186.873586 142.102015,182.917395 C153.59996,176.550421 176.595851,163.816473 176.595851,163.816473 C176.595851,163.816473 224.048133,137.518798 230.361826,134.032364 C236.66556,130.535969 236.058091,125.744612 230.740249,122.985349 C225.412448,120.236047 176.595851,93.0020155 176.595851,93.0020155 L120.66888,62.0225581 Z" id="orange" fill="url(#linearGradient-1)" sketch:type="MSShapeGroup"></path>
                    <g id="blue" transform="translate(0.000000, 1.000000)">
                        <mask id="mask-4" sketch:name="Clip 2" fill="white">
                            <use xlink:href="#path-3"></use>
                        </mask>
                        <use id="Clip-2" fill="url(#linearGradient-2)" sketch:type="MSShapeGroup" xlink:href="#path-3"></use>
                        <path d="M176.489627,92 L120.489627,61 C120.293508,61.451092 18.4278562,4.88708221 12.4896266,2 C6.45244541,-1.75928874 0.489626556,0.256577526 0.489626556,7 L0.489626556,128 C0.489626556,127.95472 0.489626556,245.952753 0.489626556,251 C0.489626556,256.361409 4.75020497,258.616784 9.48962656,256 C15.1527854,252.848612 120.293508,194.458347 120.489627,194 L176.489627,163 C176.198668,163.43197 223.632444,137.085995 229.489627,134 C236.24495,130.09034 235.637718,125.290184 230.489627,123 C224.996227,119.7715 176.198668,92.4874489 176.489627,92" id="Fill-1" sketch:type="MSShapeGroup" mask="url(#mask-4)"></path>
                    </g>
                    <g id="red" transform="translate(2.983402, 127.503876)">
                        <mask id="mask-6" sketch:name="Clip 8" fill="white">
                            <use xlink:href="#path-5"></use>
                        </mask>
                        <g id="Clip-8"></g>
                        <path d="M117.506224,-65.503876 C117.310105,-65.0527839 15.4444537,-121.616794 9.50622407,-124.503876 C3.46904292,-128.263165 -2.49377593,-126.247298 -2.49377593,-119.503876 L-2.49377593,1.49612403 C-2.49377593,1.45084368 -2.49377593,119.448877 -2.49377593,124.496124 C-2.49377593,129.857533 1.76680248,132.112908 6.50622407,129.496124 C12.169383,126.344736 117.310105,67.9544713 117.506224,67.496124 L173.506224,36.496124 C173.215265,36.928094 220.649041,10.5821191 226.506224,7.49612403 C233.261548,3.58646438 232.654316,-1.21369242 227.506224,-3.50387597 C222.012824,-6.73237581 173.215265,-34.0164271 173.506224,-34.503876 L117.506224,-65.503876 Z" id="Fill-7" fill="url(#linearGradient-7)" sketch:type="MSShapeGroup" mask="url(#mask-6)"></path>
                    </g>
                    <g id="green" transform="translate(4.979253, 0.000000)">
                        <mask id="mask-10" sketch:name="Clip 5" fill="white">
                            <use xlink:href="#path-9"></use>
                        </mask>
                        <use id="Clip-5" fill="url(#linearGradient-8)" sketch:type="MSShapeGroup" xlink:href="#path-9"></use>
                        <path d="M171.510373,93 L115.510373,62 C115.314255,62.451092 13.4486031,5.88708221 7.51037344,3 C1.4731923,-0.759288738 -4.48962656,1.25657753 -4.48962656,8 L-4.48962656,129 C-4.48962656,128.95472 -4.48962656,246.952753 -4.48962656,252 C-4.48962656,257.361409 -0.229048142,259.616784 4.51037344,257 C10.1735323,253.848612 115.314255,195.458347 115.510373,195 L171.510373,164 C171.219415,164.43197 218.653191,138.085995 224.510373,135 C231.265697,131.09034 230.658465,126.290184 225.510373,124 C220.016974,120.7715 171.219415,93.4874489 171.510373,93" id="Fill-4" sketch:type="MSShapeGroup" mask="url(#mask-10)"></path>
                    </g>
                </g>
                <g id="Google-play" transform="translate(347.000000, 201.000000)" fill="#FFFFFF" sketch:type="MSShapeGroup">
                    <path d="M665.104897,147.869801 L654.031199,158.380368 C651.472036,159.79512 648.926595,161.437612 646.388015,162.603919 C638.696804,166.116643 630.875234,167 623.925014,167 C616.528827,167 604.933691,166.516914 593.105281,157.911085 C576.673122,146.268716 569.489627,126.255161 569.489627,108.815762 C569.489627,72.7085464 598.71074,55 622.545947,55 C630.875234,55 639.430934,57.0979728 646.388015,61.5216588 C657.955707,69.216526 660.947114,79.2164027 662.607483,84.5717543 L608.178957,106.690184 L590.354009,108.084232 C596.124133,137.690492 616.034833,154.909052 638.038146,154.909052 C649.029511,154.909052 657.187272,151.29971 664.672652,147.579949 C664.672652,147.579949 666.175217,146.79321 665.104897,147.869801 L665.104897,147.869801 Z M631.849123,88.4775359 C636.21734,86.8517832 638.489627,85.4483557 638.489627,82.1829551 C638.489627,72.8175081 628.145634,62 615.800673,62 C606.657262,62 589.489627,69.295044 589.489627,94.6262158 C589.489627,98.5794349 589.950867,102.789717 590.181487,107 L631.849123,88.4775359 L631.849123,88.4775359 Z" id="Fill-1"></path>
                    <path d="M551.515748,146.60314 C551.515748,155.628579 553.115972,157.032995 560.69994,157.742087 C564.652631,158.210226 568.591644,158.416758 572.489627,158.884896 L563.955097,164 L523.286151,164 C528.620232,157.032995 529.5366,156.337671 529.5366,151.69759 L529.5366,146.513643 L529.447698,8.38519016 L511.489627,8.38519016 L528.777519,0 L561.780434,0 C554.627295,4.1719419 552.486824,6.71228276 551.570456,14.8427504 L551.515748,146.60314" id="Fill-2"></path>
                    <path d="M488.418741,66.39776 C493.709942,70.782492 504.749779,80.0888621 504.749779,97.7379249 C504.749779,114.939566 495.130033,123.048223 485.428358,130.723225 C482.451631,133.745042 478.969679,137.021545 478.969679,142.087734 C478.969679,147.229641 482.451631,150.017422 484.957271,152.096212 L493.279819,158.573501 C503.397962,167.184646 512.621721,175.079918 512.621721,191.118262 C512.621721,212.966205 491.648081,235 452.015274,235 C418.629498,235 402.489627,218.968539 402.489627,201.780664 C402.489627,193.417321 406.620177,181.570973 420.247582,173.455433 C434.530413,164.651552 453.879142,163.474489 464.24307,162.786148 C461.006903,158.573501 457.313303,154.161235 457.313303,146.961188 C457.313303,143.023878 458.487608,140.676635 459.620949,137.909505 C457.101655,138.150424 454.561878,138.398227 452.254231,138.398227 C427.819121,138.398227 414.007378,120.019522 414.007378,101.909271 C414.007378,91.2262192 418.841146,79.3729875 428.768123,70.782492 C441.903958,59.8791709 457.565915,58 470.012187,58 L517.489627,58 L502.728881,66.39776 L488.418741,66.39776 L488.418741,66.39776 Z M472.209733,169.252274 C470.303245,169 469.160729,169 466.861931,169 C464.755847,169 452.208815,169.462503 442.490544,172.784116 C437.349221,174.697197 422.489627,180.352348 422.489627,197.149619 C422.489627,213.911851 438.533033,226 463.35179,226 C485.651506,226 497.489627,215.117163 497.489627,200.464224 C497.489627,188.404106 489.829261,182.041185 472.209733,169.252274 L472.209733,169.252274 Z M478.724841,124.515284 C484.027356,119.169682 484.489627,111.786026 484.489627,107.593263 C484.489627,90.9388646 474.652781,65 455.58412,65 C449.635786,65 443.19119,68.0124766 439.533814,72.6718653 C435.652101,77.4959451 434.489627,83.7542109 434.489627,89.7723019 C434.489627,105.280724 443.449518,131 463.1572,131 C468.908389,131 475.094657,128.179663 478.724841,124.515284 L478.724841,124.515284 Z" id="Fill-3"></path>
                    <path d="M344.82649,167 C308.126109,167 288.489627,138.048704 288.489627,111.8352 C288.489627,81.2065722 313.17549,55 348.288532,55 C382.231595,55 403.489627,81.9204778 403.489627,110.185593 C403.489627,137.792252 382.477906,167 344.82649,167 L344.82649,167 Z M373.528073,148.065395 C379.13027,140.558479 380.489627,131.188737 380.489627,122.055323 C380.489627,101.397404 370.768167,62 342.036312,62 C334.39508,62 326.698924,65.0236187 321.151651,69.9587205 C312.103004,78.1676715 310.489627,88.4827293 310.489627,98.6031633 C310.489627,121.777289 321.803867,160 349.883507,160 C358.945884,160 368.193628,155.558408 373.528073,148.065395 L373.528073,148.065395 Z" id="Fill-4"></path>
                    <path d="M221.822583,167 C185.100066,167 165.489627,138.048704 165.489627,111.8352 C165.489627,81.2065722 190.19262,55 225.306602,55 C259.243272,55 280.489627,81.9204778 280.489627,110.185593 C280.489627,137.792252 259.496531,167 221.822583,167 L221.822583,167 Z M250.538395,148.065395 C256.102128,140.558479 257.489627,131.188737 257.489627,122.055323 C257.489627,101.397404 247.735922,62 219.017445,62 C211.344989,62 203.727483,65.0236187 198.163751,69.9587205 C189.096927,78.1676715 187.489627,88.4827293 187.489627,98.6031633 C187.489627,121.777289 198.8575,160 226.902834,160 C235.949052,160 245.187595,155.558408 250.538395,148.065395 L250.538395,148.065395 Z" id="Fill-5"></path>
                    <path d="M150.264611,160.080409 L119.178589,167.244878 C106.58339,169.24346 95.2731353,171 83.2963587,171 C23.3368911,171 0.489626556,126.581676 0.489626556,91.8174048 C0.489626556,49.3630858 32.8605929,10 88.2987072,10 C100.028115,10 111.310884,11.7357931 121.590435,14.5573214 C137.882425,19.1630514 145.50276,24.8406855 150.264611,28.1670461 L132.206683,45.4281603 L124.593219,47.1432069 L130.021591,38.4365792 C122.669239,31.2098707 109.153278,17.869851 83.5024995,17.869851 C49.207553,17.869851 23.3368911,44.1072978 23.3368911,82.4123105 C23.3368911,123.552682 52.876858,162.251879 100.25487,162.251879 C114.17624,162.251879 121.343067,159.437266 127.850242,156.809372 L127.850242,121.540269 L95.0257664,123.317555 L112.424044,113.912461 L158.489627,113.912461 L152.855113,119.368799 C151.336543,120.668915 151.130402,121.111507 150.704378,122.854216 C150.477623,124.845883 150.264611,131.180491 150.264611,133.407285 L150.264611,160.080409" id="Fill-6"></path>
                    <path d="M732.19204,148.939774 L732.19204,208 L720.489627,208 L720.489627,57.714228 L732.19204,57.714228 L732.19204,74.8310428 C739.815405,63.7679871 753.74587,55 769.924954,55 C798.944471,55 818.489627,77.0642684 818.489627,111.991916 C818.489627,146.685934 798.944471,169.21059 769.924954,169.21059 C754.650802,169.21059 740.967136,161.315279 732.19204,148.939774 L732.19204,148.939774 Z M806.489627,112.892369 C806.489627,86.2901677 792.747949,66 768.38176,66 C753.250088,66 738.779007,77.9991135 732.489627,88.4636182 L732.489627,137.078082 C738.779007,147.563419 753.250088,160 768.38176,160 C792.747949,160 806.489627,139.536234 806.489627,112.892369 L806.489627,112.892369 Z" id="Fill-7"></path>
                    <path d="M834.489627,16 L846.489627,16 L846.489627,167 L834.489627,167 L834.489627,16 Z" id="Fill-8"></path>
                    <path d="M976.952898,197.601096 C979.455346,198.721396 983.726649,199.408697 986.434778,199.408697 C993.592467,199.408697 998.576796,196.473923 1003.05378,186.109429 L1011.58953,166.720677 L965.489627,57 L978.543495,57 L1018.08904,152.081173 L1057.25065,57 L1070.48963,57 L1014.26338,189.74525 C1008.4289,203.422533 999.248686,210 986.640459,210 C982.855934,210 977.864749,209.326445 974.944083,208.426081 L976.952898,197.601096" id="Fill-9"></path>
                    <path d="M943.927127,166.851012 C943.141095,163.057462 942.548123,159.713056 942.113737,156.921445 C941.755196,154.136744 941.548345,151.289853 941.548345,148.394593 C937.51476,154.330222 931.79879,159.270821 924.496966,163.16111 C917.188248,167.07904 910.244965,169 900.722945,169 C889.25653,169 880.355062,166.173839 874.004751,160.438599 C867.675125,154.710268 864.489627,146.950418 864.489627,137.13141 C864.489627,127.326221 869.102393,119.365984 878.300347,113.278337 C887.498301,107.16305 899.385312,104.122682 914.09928,104.122682 L941.548345,104.122682 L941.548345,90.5308522 C941.548345,82.7019033 938.886869,76.545157 933.57081,72.0813432 C928.234066,67.6106195 920.746077,65.3510729 911.037892,65.3510729 C902.164004,65.3510729 894.965605,67.4171415 889.484066,71.4387198 C884.050792,75.5432174 881.31347,80.6289247 881.31347,86.7580313 L869.267874,86.7580313 L869.019653,86.1706874 C868.585267,77.9064129 872.356842,70.6578979 880.375748,64.3975027 C888.360178,58.1440175 898.81992,55 911.692918,55 C924.524546,55 934.908443,58.095648 942.734288,64.273124 C950.553239,70.3884107 954.476504,79.2262092 954.476504,90.7796096 L954.476504,144.746151 C954.476504,148.622621 954.662669,152.367802 955.145321,156.016244 C955.641762,159.671597 956.434689,163.320039 957.489627,166.851012 L943.927127,166.851012 L943.927127,166.851012 Z M902.138927,159 C912.128163,159 919.306634,156.749653 926.643556,152.297577 C933.932253,147.873283 938.892425,142.101559 941.489627,135.11437 L941.489627,114 L913.933114,114 C903.406526,114 894.691779,116.347585 887.837097,121.084427 C880.968636,125.807378 877.489627,131.523538 877.489627,138.170397 C877.489627,144.442198 879.694148,149.456861 884.075633,153.256058 C888.470897,157.096929 894.478216,159 902.138927,159 L902.138927,159 Z" id="Fill-10"></path>
                </g>
                <g id="Get-it-on" transform="translate(343.000000, 79.000000)" fill="#FFFFFF" sketch:type="MSShapeGroup">
                    <path d="M0.532097598,36.3110072 C0.532097598,14.770941 17.7328698,0.915057915 39.1218957,0.915057915 C53.4570206,0.915057915 62.8323714,7.27902272 68.6738832,15.0721558 L58.2032489,20.7183321 C54.2354296,15.584862 47.2848573,11.592163 39.1218957,11.592163 C24.5732249,11.592163 13.7650505,21.8462856 13.7650505,36.3110072 C13.7650505,50.5642375 24.5732249,61.0298513 39.1218957,61.0298513 C46.6235541,61.0298513 53.2365862,57.8510733 56.5431023,54.8773778 L56.5431023,44.3092227 L34.4927732,44.3092227 L34.4927732,33.7410677 L69.3351864,33.7410677 L69.3351864,59.2866505 C62.1710682,66.7785688 51.8037626,71.8030888 39.1218957,71.8030888 C17.7328698,71.8030888 0.532097598,57.7549409 0.532097598,36.3110072" id="Fill-1"></path>
                    <path d="M86.0147231,70.7606178 L86.0147231,1.95752896 L137.095804,1.95752896 L137.095804,12.5902064 L99.0939937,12.5902064 L99.0939937,30.3242234 L136.313701,30.3242234 L136.313701,40.9504568 L99.0939937,40.9504568 L99.0939937,60.1343844 L137.095804,60.1343844 L137.095804,70.7606178 L86.0147231,70.7606178" id="Fill-2"></path>
                    <path d="M171.83438,70.7606178 L171.83438,12.5902064 L149.605457,12.5902064 L149.605457,1.95752896 L206.941364,1.95752896 L206.941364,12.5902064 L184.712441,12.5902064 L184.712441,70.7606178 L171.83438,70.7606178" id="Fill-3"></path>
                    <path d="M252.81009,1.95752896 L265.319742,1.95752896 L265.319742,70.7606178 L252.81009,70.7606178 L252.81009,1.95752896 Z" id="Fill-4"></path>
                    <path d="M301.107665,70.7606178 L301.107665,12.5902064 L278.871866,12.5902064 L278.871866,1.95752896 L336.207773,1.95752896 L336.207773,12.5902064 L313.985726,12.5902064 L313.985726,70.7606178 L301.107665,70.7606178" id="Fill-5"></path>
                    <path d="M378.949086,36.3622824 C378.949086,15.9141822 394.682215,0.915057915 417.002764,0.915057915 C439.197839,0.915057915 455.049472,15.9141822 455.049472,36.3622824 C455.049472,56.8039645 439.197839,71.8030888 417.002764,71.8030888 C394.682215,71.8030888 378.949086,56.8039645 378.949086,36.3622824 L378.949086,36.3622824 Z M441.497349,35.8378378 C441.497349,21.807183 431.857401,11.3397683 417.002742,11.3397683 C402.037278,11.3397683 392.50121,21.807183 392.50121,35.8378378 C392.50121,49.7605157 402.037278,60.3359073 417.002742,60.3359073 C431.857401,60.3359073 441.497349,49.7605157 441.497349,35.8378378 L441.497349,35.8378378 Z" id="Fill-6"></path>
                    <path d="M520.801204,70.7606178 L482.510674,21.5603196 L482.510674,70.7606178 L469.644067,70.7606178 L469.644067,1.95752896 L482.84746,1.95752896 L520.36132,49.6176999 L520.36132,1.95752896 L533.2348,1.95752896 L533.2348,70.7606178 L520.801204,70.7606178" id="Fill-7"></path>
                </g>
            </g>
        </g>
    </g>
</svg>