<?xml version="1.0" encoding="UTF-8"?>
<svg width="18px" height="18px" viewBox="0 0 18 18" version="1.1" xmlns="http://www.w3.org/2000/svg" xmlns:xlink="http://www.w3.org/1999/xlink">
    <!-- Generator: Sketch 48.2 (47327) - http://www.bohemiancoding.com/sketch -->
    <title> 👻ic-answer</title>
    <desc>Created with Sketch.</desc>
    <defs>
        <path d="M18.3333333,9.02622869 C18.3333333,13.0899493 14.6028986,16.3857907 10,16.3857907 C8.97246377,16.3857907 7.98913043,16.2210771 7.08043478,15.9206708 L2.29130435,18.3333333 L4.16666667,14.2813779 C2.62391304,12.9456288 1.66666667,11.0851491 1.66666667,9.02622869 C1.66666667,4.96172369 5.39710145,1.66666667 10,1.66666667 C14.6028986,1.66666667 18.3333333,4.96172369 18.3333333,9.02622869 L18.3333333,9.02622869 Z" id="path-1"></path>
        <rect id="path-3" x="0" y="0" width="18" height="18"></rect>
    </defs>
    <g id="components/questions&amp;answer/bar/answer+view" stroke="none" stroke-width="1" fill="none" fill-rule="evenodd" transform="translate(-1.000000, -3.000000)">
        <g id="-list-">
            <g id="-li">
                <g id="-👻/answer-solid" transform="translate(0.000000, 2.000000)">
                    <rect id="Area/icon" opacity="0.5" x="0" y="0" width="20" height="20"></rect>
                    <mask id="mask-2" fill="white">
                        <use xlink:href="#path-1"></use>
                    </mask>
                    <g id="-mask-icon" transform="translate(10.000000, 10.000000) scale(-1, 1) translate(-10.000000, -10.000000) "></g>
                    <g id="-☛/box/icon" mask="url(#mask-2)">
                        <g transform="translate(0.833333, 0.833333)">
                            <mask id="mask-4" fill="white">
                                <use xlink:href="#path-3"></use>
                            </mask>
                            <g id="-bg" stroke="none" fill="none"></g>
                            <g id="-☛/🎨/danger" stroke="none" fill="none" mask="url(#mask-4)" fill-rule="evenodd">
                                <rect id="-fill" fill="#F91143" x="0" y="0" width="18" height="18"></rect>
                            </g>
                        </g>
                    </g>
                </g>
            </g>
        </g>
    </g>
</svg>