<?xml version="1.0" encoding="UTF-8"?>
<svg width="29px" height="27px" viewBox="0 0 29 27" version="1.1" xmlns="http://www.w3.org/2000/svg" xmlns:xlink="http://www.w3.org/1999/xlink">
    <!-- Generator: Sketch 48.2 (47327) - http://www.bohemiancoding.com/sketch -->
    <title> 👻ico-question</title>
    <desc>Created with Sketch.</desc>
    <defs>
        <path d="M1.33333333,14.1347778 C1.33333333,7.8 7.62533333,2.66666667 15.3888889,2.66666667 C23.1524444,2.66666667 29.4444444,7.8 29.4444444,14.1347778 C29.4444444,17.3431111 27.8311111,20.2422222 25.2277778,22.3236667 L28.3908889,28.6376667 L20.3132222,24.8781111 C18.7805556,25.3462222 17.122,25.6004444 15.3888889,25.6004444 C7.62533333,25.6004444 1.33333333,20.4671111 1.33333333,14.1347778 Z M20.3333333,11.8714667 C20.3333333,9.4835009 18.3977838,7.57602222 16,7.57602222 C13.616377,7.57602222 11.6666667,9.58140012 11.6666667,11.9851333 C11.6666667,12.3533232 11.9651435,12.6518 12.3333333,12.6518 C12.7015232,12.6518 13,12.3533232 13,11.9851333 C13,10.3095103 14.3612877,8.90935556 16,8.90935556 C17.665729,8.90935556 19,10.2242759 19,11.8714667 C19,13.5186574 17.665729,14.8335778 16,14.8335778 C15.6318102,14.8335778 15.3333333,15.1320546 15.3333333,15.5002444 L15.3333333,17.0268 C15.3333333,17.3949898 15.6318102,17.6934667 16,17.6934667 C16.3681898,17.6934667 16.6666667,17.3949898 16.6666667,17.0268 L16.6666667,16.1169335 C18.7465832,15.801811 20.3333333,14.0335888 20.3333333,11.8714667 Z M15.9444444,19.7780222 C15.9444444,19.7471657 15.9691435,19.7224667 16,19.7224667 C16.0308565,19.7224667 16.0555556,19.7471657 16.0555556,19.7780222 C16.0555556,19.8088787 16.0308565,19.8335778 16,19.8335778 C15.9691435,19.8335778 15.9444444,19.8088787 15.9444444,19.7780222 Z M17.2777778,19.7780222 C17.2777778,19.0724991 16.7055232,18.5002444 16,18.5002444 C15.2944768,18.5002444 14.7222222,19.0724991 14.7222222,19.7780222 C14.7222222,20.4835454 15.2944768,21.0558 16,21.0558 C16.7055232,21.0558 17.2777778,20.4835454 17.2777778,19.7780222 Z" id="path-1"></path>
        <rect id="path-3" x="0" y="0" width="29" height="29"></rect>
    </defs>
    <g id="components/others-card/hot-question-:-li" stroke="none" stroke-width="1" fill="none" fill-rule="evenodd" transform="translate(-1.000000, -2.000000)">
        <g id="-👻/question">
            <rect id="Area/icon" opacity="0.5" x="0" y="0" width="32" height="32"></rect>
            <mask id="mask-2" fill="white">
                <use xlink:href="#path-1"></use>
            </mask>
            <g id="-mask-icon"></g>
            <g id="-☛/box/icon" mask="url(#mask-2)">
                <g transform="translate(1.333333, 1.333333)">
                    <mask id="mask-4" fill="white">
                        <use xlink:href="#path-3"></use>
                    </mask>
                    <g id="-bg" stroke="none" fill="none"></g>
                    <g id="-☛/🎨/primary" stroke="none" fill="none" mask="url(#mask-4)" fill-rule="evenodd">
                        <rect id="-fill" fill="#F9B233" x="0" y="0" width="29" height="29"></rect>
                    </g>
                </g>
            </g>
        </g>
    </g>
</svg>