<?xml version="1.0" encoding="UTF-8"?>
<svg width="20px" height="12px" viewBox="0 0 20 12" version="1.1" xmlns="http://www.w3.org/2000/svg" xmlns:xlink="http://www.w3.org/1999/xlink">
    <!-- Generator: Sketch 48.2 (47327) - http://www.bohemiancoding.com/sketch -->
    <title> 👻ic-view</title>
    <desc>Created with Sketch.</desc>
    <defs>
        <path d="M16.1236578,11.2072895 C16.4104209,11.1388835 16.710684,11.1025436 17.019924,11.1025436 C18.9600378,11.1025436 20.5440829,12.5303211 20.6629534,14.3333849 C20.6650325,14.3333556 20.6671152,14.3333409 20.6692015,14.3333409 L21.581749,14.3333409 C21.8127427,14.3333409 22,14.5134799 22,14.7356926 C22,14.9579052 21.8127427,15.1380442 21.581749,15.1380442 L20.6692015,15.1380442 C20.6519074,15.1380442 20.6348585,15.1370345 20.618115,15.1350729 C20.3249135,16.7622206 18.8268479,18 17.019924,18 C15.0041065,18 13.3697338,16.4566941 13.3697338,14.5512718 L12.9514829,14.5512718 C12.9514829,14.0612366 12.5271783,13.6603504 12.0009125,13.6603504 C11.4746468,13.6603504 11.0503422,14.0612366 11.0503422,14.5512718 L10.6320913,14.5512718 C10.6320913,16.4566941 8.99954373,18 6.98190114,18 C5.17653057,18 3.67711818,16.7621093 3.38372402,15.1348535 C3.36639034,15.1369591 3.34872613,15.1380442 3.33079848,15.1380442 L2.41825095,15.1380442 C2.18725733,15.1380442 2,14.9579052 2,14.7356926 C2,14.5134799 2.18725733,14.3333409 2.41825095,14.3333409 L3.33079848,14.3333409 C3.33349753,14.3333409 3.33619061,14.3333655 3.3388775,14.3334145 C3.45785972,12.5303367 5.04353163,11.1025436 6.98190114,11.1025436 C7.29091533,11.1025436 7.59089644,11.1387648 7.87736292,11.2069545 C7.90793655,11.1124074 7.97462917,11.0284614 8.07137674,10.9760135 L11.1487549,9.30773412 L6.75537749,6.925787 C6.30005134,6.67704256 5.71514283,6.82516723 5.45357598,7.25316843 C5.33650656,7.44472885 5.08017619,7.50872338 4.88104607,7.39610422 C4.68191595,7.28348505 4.61539262,7.03689878 4.73246204,6.84533837 C5.22644798,6.03703036 6.31695003,5.76086707 7.16727067,6.22539925 L12.0006619,8.84590628 L16.8333699,6.22604392 C17.6848751,5.76086707 18.7753771,6.03703036 19.2693631,6.84533837 C19.3864325,7.03689878 19.3199091,7.28348505 19.120779,7.39610422 C18.9216489,7.50872338 18.6653185,7.44472885 18.5482491,7.25316843 C18.2866823,6.82516723 17.7017738,6.67704256 17.2452468,6.92644046 L12.8525474,9.30777079 L15.929552,10.9760223 C16.0264056,11.0285332 16.0931354,11.1126115 16.1236578,11.2072895 Z M15.2529338,11.5328871 L12.0006404,9.76959887 L8.74883912,11.5324358 C9.59643311,11.976045 10.2370092,12.7290257 10.5005062,13.6299976 C10.819357,13.1636924 11.3729944,12.8556471 12.0009125,12.8556471 C12.6288895,12.8556471 13.1825718,13.1637501 13.5014085,13.6301286 C13.7650279,12.7294042 14.4057559,11.9765772 15.2529338,11.5328871 Z" id="path-1"></path>
        <rect id="path-3" x="0" y="0" width="22" height="22"></rect>
    </defs>
    <g id="components/questions&amp;answer/bar/answer+view" stroke="none" stroke-width="1" fill="none" fill-rule="evenodd" transform="translate(-113.000000, -6.000000)">
        <g id="-list-">
            <g id="-li" transform="translate(111.000000, 0.000000)">
                <g id="-👻/view-solid">
                    <rect id="Area/icon" opacity="0.5" x="0" y="0" width="24" height="24"></rect>
                    <mask id="mask-2" fill="white">
                        <use xlink:href="#path-1"></use>
                    </mask>
                    <g id="-mask-icon"></g>
                    <g id="-☛/box/icon" mask="url(#mask-2)">
                        <g transform="translate(1.000000, 1.000000)">
                            <mask id="mask-4" fill="white">
                                <use xlink:href="#path-3"></use>
                            </mask>
                            <g id="-bg" stroke="none" fill="none"></g>
                            <g id="-☛/🎨/info" stroke="none" fill="none" mask="url(#mask-4)" fill-rule="evenodd">
                                <rect id="-fill" fill="#1FB6FF" x="0" y="0" width="22" height="22"></rect>
                            </g>
                        </g>
                    </g>
                </g>
            </g>
        </g>
    </g>
</svg>