<?xml version="1.0" encoding="utf-8"?>
<!-- Generator: Adobe Illustrator 19.0.0, SVG Export Plug-In . SVG Version: 6.00 Build 0)  -->
<svg version="1.1" xmlns="http://www.w3.org/2000/svg" xmlns:xlink="http://www.w3.org/1999/xlink" x="0px" y="0px"
	 viewBox="0 0 339 161" enable-background="new 0 0 339 161" xml:space="preserve">
<g id="Layer_1" display="none">
	<text id="XMLID_1_" transform="matrix(1 0 0 1 0 147)" display="inline"><tspan x="0" y="0" font-family="'HelveticaNeue-UltraLight'" font-size="200px">5</tspan><tspan x="111.2" y="0" fill="#FDA600" font-family="'HelveticaNeue-UltraLight'" font-size="200px">00</tspan></text>
	<path id="XMLID_4_" display="inline" fill="#FAA61A" d="M310.5,91.1c-3.4-4.1-7.1-8-10.3-12.2c-2.9-3.9-5.6-8.1-2.7-13.9
		c-6.1,4.9-7.4,11.2-3.8,17.1c2.2,3.6,5,6.9,7.3,10.4c4.2,6.5,7.3,13.3,6,21.4c-0.2,1.4-0.2,2.9-1.8,3.6c-0.2-0.3-0.5-0.6-0.5-0.8
		c2.6-8.5-0.2-15.5-5.7-21.9c-4.4-5.1-10-8.6-15-12.9c-10.2-8.7-12.7-22.4-6.3-34.2c2.3-4.3,5.7-7.6,9.3-10.7
		c-13.5,3.7-22.4,11.6-23.6,27.1c-2.2-4.8-0.5-8.5,0.9-12.4c-8.9,5.4-13.2,18-9.9,27.2c2.5,7.1,7.6,12,13.2,16.6
		c0.5,0.3-0.1,1.3,0.8,1.1c0.6-0.1,4-1.2-0.6-1.4c-3.2-1-7.3-1.3-11,0.4c1.6,1,2.9,1.7,4,2.6c4.6,3.8,5.8,10.2,3,15.1
		c-1.7,2.9-5.5,4.4-9,3.4c-4.8-1.4-8.3-6.9-7.6-12.7c0.5-3.8,1.6-7.5,2.5-11.3c0.9-3.2,1.5-6.5,1.2-9.8c-0.4-4.5-2.7-7.4-6.3-8.2
		c4.2,6.5,4.5,9.5,1.7,17.1c-1.5,4-3.8,7.6-5.7,11.3c-5.1,10.2-4.9,20,2.2,29.5c15.3,20.5,54,18.5,68.1-0.4
		C320.9,119,321,103.5,310.5,91.1z"/>
	<g id="XMLID_5_" display="inline">
		<path id="XMLID_6_" fill="#FAA61A" d="M172.8,82.6C172.8,82.6,172.8,82.6,172.8,82.6C172.8,82.6,172.8,82.6,172.8,82.6L172.8,82.6
			z"/>
		<path id="XMLID_7_" fill="#FAA61A" d="M206.2,97.8c-2.4-6.6-7.3-11.7-11-17.5c-3.8-6-7.7-12-2-19.9c-6.5,3.8-9.4,10.5-7.8,17.3
			c0.8,3.5,1.9,6.9,2.9,10.4c1.7,5.8,0.1,16.3-6.1,22.1c-0.5,0.1-1,0.3-1.5,0.6c0.1-0.4,0.4-0.7,0.6-1.1c5.2-10.7,2-21-8.4-27.1
			c-0.5,1.9,1,3.1,1.7,4.6c1.7,3.8,1.2,8.1-1.3,9.9c-1.9,1.4-4.1,2.3-6.3,0.8c-2.9-2-3.8-5.1-3.6-8.4c0.4-4.6,2.9-8.2,5.5-11.8
			c4.2-5.7,7-11.8,7.6-19c0.7-8.7-4.5-18.2-13-21.5c4.8,7.2,2.8,13.7-0.5,20.2c-1.4,2.7-3.1,5.3-5,7.6c-5.8,6.9-12.4,13.2-16.6,21.3
			c-3.8,7.3-5,14.8-1.1,22.5c1.3,2.7,4,4.4,5.6,7.2c-7.7-1.8-12.4-9.1-13.2-19.9c-0.3,0.3-0.7,0.5-0.9,0.8c-0.5,0.9-1.1,1.9-1.4,2.8
			c-3.3,10.6-2.3,20.8,3.4,30.3c12,20,40.9,21.8,56.9,11.1C205.3,131.6,211.8,113.4,206.2,97.8z"/>
	</g>
</g>
<g id="Layer_2">
	<text id="XMLID_32_" transform="matrix(1 0 0 1 1 148)"><tspan x="0" y="0" fill="#010101" font-family="'HelveticaNeue-UltraLight'" font-size="200px">4</tspan><tspan x="111.2" y="0" fill="#FAA61A" font-family="'HelveticaNeue-UltraLight'" font-size="200px">0</tspan><tspan x="222.4" y="0" font-family="'HelveticaNeue-UltraLight'" font-size="200px">4</tspan></text>
	<g id="XMLID_33_">
		<path id="XMLID_38_" fill="#FAA61A" d="M167.6,12L167.6,12c-25.8,0-47.8,28.1-47.8,53.8l1,46.2l12.1-10.9l14.4,10.9l10.3-10.3
			l13.2,10.3l8.6-11.5l10.3,10.9l11.5-10.3l13.2,10.3l2-46.6C216.4,39.1,193.3,12,167.6,12z M156.4,59.1c-4.7,0-8.6-3.9-8.6-8.6
			c0-4.7,3.9-8.6,8.6-8.6c4.7,0,8.6,3.9,8.6,8.6C165,55.2,161.1,59.1,156.4,59.1z M178.8,59.1c-4.7,0-8.6-3.9-8.6-8.6
			c0-4.7,3.9-8.6,8.6-8.6c4.7,0,8.6,3.9,8.6,8.6C187.4,55.2,183.5,59.1,178.8,59.1z"/>
	</g>
</g>
</svg>
