<?xml version="1.0" encoding="iso-8859-1"?>
<!-- Generator: Adobe Illustrator 16.0.0, SVG Export Plug-In . SVG Version: 6.00 Build 0)  -->
<!DOCTYPE svg PUBLIC "-//W3C//DTD SVG 1.1//EN" "http://www.w3.org/Graphics/SVG/1.1/DTD/svg11.dtd">
<svg version="1.1" id="Capa_1" xmlns="http://www.w3.org/2000/svg" xmlns:xlink="http://www.w3.org/1999/xlink" x="0px" y="0px"
	 width="308.306px" height="308.306px" viewBox="0 0 308.306 308.306" style="enable-background:new 0 0 308.306 308.306;"
	 xml:space="preserve">
<g>
	<g>
		<path d="M306.436,166.986L157.324,17.358c-1.159-1.156-2.822-1.732-4.371-1.808c-1.651,0.006-2.895,0.664-4.048,1.838
			L94.052,73.53V40.786c0-3.396-3.411-6.284-6.804-6.284H50.361c-3.399,0-5.5,2.889-5.5,6.284v82.788L1.842,167.009
			c-2.378,2.42-2.504,6.323-0.084,8.701c2.426,2.378,7.44,2.342,9.824-0.072l45.576-45.189c0,0,0-0.006,0-0.012l97.062-99.995
			l144.115,145.22c1.201,1.2,2.474,1.808,4.053,1.808c1.567,0,2.991-0.595,4.186-1.796
			C308.976,173.285,308.831,169.393,306.436,166.986z"/>
	</g>
</g>
</svg>
